<?xml version="1.0" encoding="UTF-8" standalone="no"?>
<!DOCTYPE svg PUBLIC "-//W3C//DTD SVG 1.1//EN"
 "http://www.w3.org/Graphics/SVG/1.1/DTD/svg11.dtd">
<!-- Generated by graphviz version 2.30.1 (20130303.0813)
 -->
<!-- Title: G Pages: 1 -->
<svg width="176pt" height="216pt"
 viewBox="0.00 0.00 175.50 216.00" xmlns="http://www.w3.org/2000/svg" xmlns:xlink="http://www.w3.org/1999/xlink">
<g id="graph0" class="graph" transform="scale(0.964286 0.964286) rotate(0) translate(4 220)">
<title>G</title>
<polygon fill="white" stroke="white" points="-4,5 -4,-220 179,-220 179,5 -4,5"/>
<!-- treatment -->
<g id="node1" class="node"><title>treatment</title>
<ellipse fill="none" stroke="black" cx="113.8" cy="-108" rx="50.5776" ry="18"/>
<text text-anchor="middle" x="113.8" y="-103.8" font-family="Times,serif" font-size="14.00">Treatment</text>
</g>
<!-- conversion -->
<g id="node2" class="node"><title>conversion</title>
<ellipse fill="none" stroke="black" cx="65.8" cy="-22" rx="55.3395" ry="18"/>
<text text-anchor="middle" x="65.8" y="-17.8" font-family="Times,serif" font-size="14.00">Conversion</text>
</g>
<!-- treatment&#45;&gt;conversion -->
<g id="edge1" class="edge"><title>treatment&#45;&gt;conversion</title>
<path fill="none" stroke="black" d="M104.086,-90.0013C97.3202,-78.1603 88.1718,-62.1507 80.5145,-48.7504"/>
<polygon fill="black" stroke="black" points="83.4994,-46.9193 75.4991,-39.9734 77.4217,-50.3923 83.4994,-46.9193"/>
</g>
<!-- source -->
<g id="node3" class="node"><title>source</title>
<ellipse fill="none" stroke="black" cx="65.8" cy="-194" rx="37.2772" ry="18"/>
<text text-anchor="middle" x="65.8" y="-189.8" font-family="Times,serif" font-size="14.00">Source</text>
</g>
<!-- source&#45;&gt;conversion -->
<g id="edge2" class="edge"><title>source&#45;&gt;conversion</title>
<path fill="none" stroke="black" d="M61.903,-176.039C59.0152,-162.561 55.3268,-143.185 53.8,-126 52.3841,-110.063 52.3841,-105.937 53.8,-90 54.9809,-76.7083 57.4549,-62.1064 59.8514,-49.9363"/>
<polygon fill="black" stroke="black" points="63.3165,-50.4615 61.903,-39.9614 56.46,-49.0512 63.3165,-50.4615"/>
</g>
<!-- source&#45;&gt;treatment -->
<g id="edge3" class="edge"><title>source&#45;&gt;treatment</title>
<path fill="none" stroke="black" d="M75.2833,-176.404C82.0761,-164.517 91.3542,-148.28 99.102,-134.721"/>
<polygon fill="black" stroke="black" points="102.25,-136.268 104.172,-125.849 96.1719,-132.795 102.25,-136.268"/>
</g>
</g>
</svg>
