<?xml version="1.0" encoding="UTF-8" standalone="no"?>
<!DOCTYPE svg PUBLIC "-//W3C//DTD SVG 1.1//EN"
 "http://www.w3.org/Graphics/SVG/1.1/DTD/svg11.dtd">
<!-- Generated by graphviz version 2.30.1 (20130303.0813)
 -->
<!-- Title: G Pages: 1 -->
<svg width="288pt" height="163pt"
 viewBox="0.00 0.00 288.00 162.91" xmlns="http://www.w3.org/2000/svg" xmlns:xlink="http://www.w3.org/1999/xlink">
<g id="graph0" class="graph" transform="scale(0.727273 0.727273) rotate(0) translate(4 220)">
<title>G</title>
<polygon fill="white" stroke="white" points="-4,5 -4,-220 393,-220 393,5 -4,5"/>
<!-- treatment -->
<g id="node1" class="node"><title>treatment</title>
<ellipse fill="none" stroke="black" cx="100" cy="-180" rx="50.5776" ry="18"/>
<text text-anchor="middle" x="100" y="-175.8" font-family="Times,serif" font-size="14.00">Treatment</text>
</g>
<!-- conversion -->
<g id="node2" class="node"><title>conversion</title>
<ellipse fill="none" stroke="black" cx="206" cy="-36" rx="55.3395" ry="18"/>
<text text-anchor="middle" x="206" y="-31.8" font-family="Times,serif" font-size="14.00">Conversion</text>
</g>
<!-- treatment&#45;&gt;conversion -->
<g id="edge1" class="edge"><title>treatment&#45;&gt;conversion</title>
<path fill="none" stroke="black" d="M112.367,-162.433C130.778,-137.769 165.539,-91.2029 187.136,-62.2708"/>
<polygon fill="black" stroke="black" points="190.206,-64.009 193.383,-53.9017 184.596,-59.8216 190.206,-64.009"/>
</g>
<!-- source -->
<g id="node3" class="node"><title>source</title>
<ellipse fill="none" stroke="black" cx="314" cy="-180" rx="37.2772" ry="18"/>
<text text-anchor="middle" x="314" y="-175.8" font-family="Times,serif" font-size="14.00">Source</text>
</g>
<!-- source&#45;&gt;conversion -->
<g id="edge2" class="edge"><title>source&#45;&gt;conversion</title>
<path fill="none" stroke="black" d="M301.611,-162.711C282.751,-137.913 246.707,-90.5226 224.665,-61.5414"/>
<polygon fill="black" stroke="black" points="227.417,-59.3773 218.577,-53.5366 221.845,-63.6149 227.417,-59.3773"/>
</g>
</g>
</svg>
