<?xml version="1.0" encoding="UTF-8" standalone="no"?>
<!DOCTYPE svg PUBLIC "-//W3C//DTD SVG 1.1//EN"
 "http://www.w3.org/Graphics/SVG/1.1/DTD/svg11.dtd">
<!-- Generated by graphviz version 2.38.0 (20140413.2041)
 -->
<!-- Title: G Pages: 1 -->
<svg width="432pt" height="270pt"
 viewBox="0.00 0.00 432.00 269.92" xmlns="http://www.w3.org/2000/svg" xmlns:xlink="http://www.w3.org/1999/xlink">
<g id="graph0" class="graph" transform="scale(0.733477 0.733477) rotate(0) translate(4 364)">
<title>G</title>
<polygon fill="white" stroke="none" points="-4,4 -4,-364 584.976,-364 584.976,4 -4,4"/>
<!-- truequality -->
<g id="node1" class="node"><title>truequality</title>
<ellipse fill="none" stroke="black" cx="119.589" cy="-324" rx="59.5901" ry="18"/>
<text text-anchor="middle" x="119.589" y="-320.3" font-family="Times,serif" font-size="14.00">True Quality</text>
</g>
<!-- proxymetrics -->
<g id="node2" class="node"><title>proxymetrics</title>
<ellipse fill="none" stroke="black" cx="273.589" cy="-180" rx="63.8893" ry="18"/>
<text text-anchor="middle" x="273.589" y="-176.3" font-family="Times,serif" font-size="14.00">Proxy Metrics</text>
</g>
<!-- truequality&#45;&gt;proxymetrics -->
<g id="edge1" class="edge"><title>truequality&#45;&gt;proxymetrics</title>
<path fill="none" stroke="black" d="M137.255,-306.711C164.495,-281.594 216.871,-233.298 248.178,-204.431"/>
<polygon fill="black" stroke="black" points="250.676,-206.889 255.655,-197.537 245.931,-201.742 250.676,-206.889"/>
</g>
<!-- rankings -->
<g id="node3" class="node"><title>rankings</title>
<ellipse fill="none" stroke="black" cx="273.589" cy="-36" rx="66.0889" ry="18"/>
<text text-anchor="middle" x="273.589" y="-32.3" font-family="Times,serif" font-size="14.00">SEO Rankings</text>
</g>
<!-- proxymetrics&#45;&gt;rankings -->
<g id="edge3" class="edge"><title>proxymetrics&#45;&gt;rankings</title>
<path fill="none" stroke="black" d="M273.589,-161.871C273.589,-137.67 273.589,-93.2108 273.589,-64.3932"/>
<polygon fill="black" stroke="black" points="277.089,-64.1892 273.589,-54.1893 270.089,-64.1893 277.089,-64.1892"/>
</g>
<!-- googleengineers -->
<g id="node4" class="node"><title>googleengineers</title>
<ellipse fill="none" stroke="black" cx="427.589" cy="-324" rx="76.8869" ry="18"/>
<text text-anchor="middle" x="427.589" y="-320.3" font-family="Times,serif" font-size="14.00">Google Engineers</text>
</g>
<!-- googleengineers&#45;&gt;proxymetrics -->
<g id="edge2" class="edge"><title>googleengineers&#45;&gt;proxymetrics</title>
<path fill="none" stroke="black" d="M409.622,-306.433C382.266,-281.209 330.067,-233.077 298.888,-204.327"/>
<polygon fill="black" stroke="black" points="301.166,-201.667 291.442,-197.462 296.421,-206.814 301.166,-201.667"/>
</g>
</g>
</svg>
